<mxfile host="app.diagrams.net" modified="2023-04-05T10:21:12.932Z" agent="Mozilla/5.0 (Windows NT 10.0; Win64; x64) AppleWebKit/537.36 (KHTML, like Gecko) Chrome/111.0.0.0 Safari/537.36" version="21.1.4" etag="aLAY1IsuWtzVTBIOCm8Q" type="github">
  <diagram name="Page-1" id="ZVroiXGvMfVYC5Fzw1G9">
    <mxGraphModel>
      <root>
        <mxCell id="0" />
        <mxCell id="1" parent="0" />
      </root>
    </mxGraphModel>
  </diagram>
</mxfile>
